<?xml version="1.0" encoding="UTF-8"?>
<!DOCTYPE svg PUBLIC "-//W3C//DTD SVG 1.1//EN" "http://www.w3.org/Graphics/SVG/1.1/DTD/svg11.dtd">
<!-- Creator: CorelDRAW -->
<svg xmlns="http://www.w3.org/2000/svg" xml:space="preserve" width="24.761mm" height="3.564mm" version="1.1" style="shape-rendering:geometricPrecision; text-rendering:geometricPrecision; image-rendering:optimizeQuality; fill-rule:evenodd; clip-rule:evenodd"
viewBox="0 0 2476.1 356.4"
 xmlns:xlink="http://www.w3.org/1999/xlink"
 xmlns:xodm="http://www.corel.com/coreldraw/odm/2003">
 <defs>
  <style type="text/css">
   <![CDATA[
    .fil0 {fill:black}
   ]]>
  </style>
 </defs>
 <g id="Camada_x0020_1">
  <metadata id="CorelCorpID_0Corel-Layer"/>
  <g id="_1724695037920">
   <path class="fil0" d="M174.05 19.64l-13.22 40.4c-0.71,3.5 -2.29,7.32 -3.4,10.86 -0.92,2.91 -1.99,8.35 -3.66,10.32 0.06,1.38 -11.54,37.45 -12.83,40.23 -0.56,2.48 -3.87,13.17 -4.96,14.83l-15.48 0.01 -19.57 0 -21.18 0 -19.57 0 -21.18 0 -19.57 0c-4.62,0 -9.23,0 -13.85,0 -1.96,0 -11.21,-0.61 -12.73,0.62 1.82,0.66 32.51,23.37 33.55,24.16 2.8,2.13 5.77,4.06 8.54,6.13 2.74,2.05 5.42,4.04 8.23,6.03l16.67 12.16c4.29,2.78 8.21,5.93 12.37,8.92l30.53 22.03c1.79,1.35 4.07,3.26 6.09,4.29l-14.24 43.64 -6.53 20.12 -11.81 36.62c-0.33,0.95 -0.51,1.52 -0.8,2.44l-1.12 2.4c0.09,1.6 -5.13,17.64 -6.11,19.45l-3.65 11.64c2.52,-1.58 5.25,-3.58 7.65,-5.32 2.7,-1.97 5.11,-4.02 7.93,-5.63 1.4,-1.32 3.35,-2.51 5.05,-3.79 1.75,-1.32 3.12,-2.26 4.94,-3.62 3.28,-2.42 6.91,-4.89 10.16,-7.36 6.74,-5.12 13.76,-9.54 20.3,-14.74 3.19,-2.53 6.66,-5 10.12,-7.41l25.48 -18.53c0.95,-0.69 1.79,-1.2 2.64,-1.86 1.22,-0.94 1.14,-1.25 2.49,-1.44 0.82,-1.4 2.56,-2.12 3.9,-3.2 4.1,-2.8 11.85,-9.03 15.17,-10.98 1.92,1.04 3.95,2.77 5.8,4.09 1.95,1.39 3.53,2.56 5.43,3.94 1.86,1.36 3.55,2.56 5.44,3.93l5.11 4.02c1.94,0.74 8.49,5.84 10.73,7.45l66.6 48.32c1.48,1.14 3.87,2.46 4.79,3.93 1.73,0.35 9.56,6.79 11.93,8.1l-3.52 -11.17 -6.62 -20.75c-1.11,-2.17 -12.67,-38.13 -12.64,-39.52 -0.96,-1.11 -1.6,-4.02 -2.07,-5.41l-5.08 -15.96c-0.97,-1.73 -13.7,-41.17 -13.94,-43.54 1.58,-0.62 24.84,-17.79 25.91,-18.56l22.41 -16.31c1.39,-1.02 1.96,-1.75 3.13,-1.95 1.59,-2.07 9.67,-7.31 12.16,-9.26l12.06 -8.72c1.47,-1.11 2.45,-1.73 4.05,-2.87 1.39,-0.99 2.56,-2.02 3.97,-2.97 2.79,-1.9 5.35,-4.05 8.25,-6l23.93 -17.54 -3.23 -0.02 -19.56 0 -21.19 0 -19.56 0 -21.19 0 -19.56 0 -21.19 0 -17.93 -0.12c-1.11,-2.12 -10.92,-32.84 -10.88,-34.1 -0.44,-0.51 0,0.21 -0.55,-0.83l-6.61 -20.52c-1.2,-2.23 -12.88,-39.01 -12.81,-40.13l-1.18 -2.7c-1.75,-5.7 -4.65,-13.12 -5.93,-18.6 -0.91,-1.14 -4.87,-13.87 -4.73,-15.32 -1.27,-1.46 -0.94,-2.66 -1.85,-3.45l-6.23 19.12z"/>
   <path class="fil0" d="M699.24 19.64l-13.22 40.4c-0.71,3.5 -2.29,7.32 -3.4,10.86 -0.92,2.91 -1.99,8.35 -3.66,10.32 0.06,1.38 -11.54,37.45 -12.83,40.23 -0.56,2.48 -3.87,13.17 -4.96,14.83l-15.48 0.01 -19.57 0 -21.18 0 -19.57 0 -21.18 0 -19.57 0c-4.62,0 -9.23,0 -13.85,0 -1.96,0 -11.21,-0.61 -12.73,0.62 1.82,0.66 32.51,23.37 33.55,24.16 2.8,2.13 5.77,4.06 8.54,6.13 2.74,2.05 5.42,4.04 8.23,6.03l16.67 12.16c4.29,2.78 8.21,5.93 12.37,8.92l30.53 22.03c1.79,1.35 4.07,3.26 6.09,4.29l-14.24 43.64 -6.53 20.12 -11.81 36.62c-0.33,0.95 -0.51,1.52 -0.8,2.44l-1.12 2.4c0.09,1.6 -5.13,17.64 -6.11,19.45l-3.65 11.64c2.52,-1.58 5.25,-3.58 7.65,-5.32 2.7,-1.97 5.11,-4.02 7.93,-5.63 1.4,-1.32 3.35,-2.51 5.05,-3.79 1.75,-1.32 3.12,-2.26 4.94,-3.62 3.28,-2.42 6.91,-4.89 10.16,-7.36 6.74,-5.12 13.76,-9.54 20.3,-14.74 3.19,-2.53 6.66,-5 10.12,-7.41l25.48 -18.53c0.95,-0.69 1.79,-1.2 2.64,-1.86 1.22,-0.94 1.14,-1.25 2.49,-1.44 0.82,-1.4 2.56,-2.12 3.9,-3.2 4.1,-2.8 11.85,-9.03 15.17,-10.98 1.92,1.04 3.95,2.77 5.8,4.09 1.95,1.39 3.53,2.56 5.43,3.94 1.86,1.36 3.55,2.56 5.44,3.93l5.11 4.02c1.94,0.74 8.49,5.84 10.73,7.45l66.6 48.32c1.48,1.14 3.87,2.46 4.79,3.93 1.73,0.35 9.56,6.79 11.93,8.1l-3.52 -11.17 -6.62 -20.75c-1.11,-2.17 -12.67,-38.13 -12.64,-39.52 -0.96,-1.11 -1.6,-4.02 -2.07,-5.41l-5.08 -15.96c-0.97,-1.73 -13.7,-41.17 -13.94,-43.54 1.58,-0.62 24.84,-17.79 25.91,-18.56l22.41 -16.31c1.39,-1.02 1.96,-1.75 3.13,-1.95 1.59,-2.07 9.67,-7.31 12.16,-9.26l12.06 -8.72c1.47,-1.11 2.45,-1.73 4.05,-2.87 1.39,-0.99 2.56,-2.02 3.97,-2.97 2.79,-1.9 5.35,-4.05 8.25,-6l23.93 -17.54 -3.23 -0.02 -19.56 0 -21.19 0 -19.56 0 -21.19 0 -19.56 0 -21.19 0 -17.93 -0.12c-1.11,-2.12 -10.92,-32.84 -10.88,-34.1 -0.44,-0.51 0,0.21 -0.55,-0.83l-6.61 -20.52c-1.2,-2.23 -12.88,-39.01 -12.81,-40.13l-1.18 -2.7c-1.75,-5.7 -4.65,-13.12 -5.93,-18.6 -0.91,-1.14 -4.87,-13.87 -4.73,-15.32 -1.27,-1.46 -0.94,-2.66 -1.85,-3.45l-6.23 19.12z"/>
   <path class="fil0" d="M1224.43 19.64l-13.22 40.4c-0.71,3.5 -2.29,7.32 -3.4,10.86 -0.92,2.91 -1.99,8.35 -3.66,10.32 0.06,1.38 -11.54,37.45 -12.83,40.23 -0.56,2.48 -3.87,13.17 -4.96,14.83l-15.48 0.01 -19.57 0 -21.18 0 -19.57 0 -21.18 0 -19.57 0c-4.62,0 -9.23,0 -13.85,0 -1.96,0 -11.21,-0.61 -12.73,0.62 1.82,0.66 32.51,23.37 33.55,24.16 2.8,2.13 5.77,4.06 8.54,6.13 2.74,2.05 5.42,4.04 8.23,6.03l16.67 12.16c4.29,2.78 8.21,5.93 12.37,8.92l30.53 22.03c1.79,1.35 4.07,3.26 6.09,4.29l-14.24 43.64 -6.53 20.12 -11.81 36.62c-0.33,0.95 -0.51,1.52 -0.8,2.44l-1.12 2.4c0.09,1.6 -5.13,17.64 -6.11,19.45l-3.65 11.64c2.52,-1.58 5.25,-3.58 7.65,-5.32 2.7,-1.97 5.11,-4.02 7.93,-5.63 1.4,-1.32 3.35,-2.51 5.05,-3.79 1.75,-1.32 3.12,-2.26 4.94,-3.62 3.28,-2.42 6.91,-4.89 10.16,-7.36 6.74,-5.12 13.76,-9.54 20.3,-14.74 3.19,-2.53 6.66,-5 10.12,-7.41l25.48 -18.53c0.95,-0.69 1.79,-1.2 2.64,-1.86 1.22,-0.94 1.14,-1.25 2.49,-1.44 0.82,-1.4 2.56,-2.12 3.9,-3.2 4.1,-2.8 11.85,-9.03 15.17,-10.98 1.92,1.04 3.95,2.77 5.8,4.09 1.95,1.39 3.53,2.56 5.43,3.94 1.86,1.36 3.55,2.56 5.44,3.93l5.11 4.02c1.94,0.74 8.49,5.84 10.73,7.45l66.6 48.32c1.48,1.14 3.87,2.46 4.79,3.93 1.73,0.35 9.56,6.79 11.93,8.1l-3.52 -11.17 -6.62 -20.75c-1.11,-2.17 -12.67,-38.13 -12.64,-39.52 -0.96,-1.11 -1.6,-4.02 -2.07,-5.41l-5.08 -15.96c-0.97,-1.73 -13.7,-41.17 -13.94,-43.54 1.58,-0.62 24.84,-17.79 25.91,-18.56l22.41 -16.31c1.39,-1.02 1.96,-1.75 3.13,-1.95 1.59,-2.07 9.67,-7.31 12.16,-9.26l12.06 -8.72c1.47,-1.11 2.45,-1.73 4.05,-2.87 1.39,-0.99 2.56,-2.02 3.97,-2.97 2.79,-1.9 5.35,-4.05 8.25,-6l23.93 -17.54 -3.23 -0.02 -19.56 0 -21.19 0 -19.56 0 -21.19 0 -19.56 0 -21.19 0 -17.93 -0.12c-1.11,-2.12 -10.92,-32.84 -10.88,-34.1 -0.44,-0.51 0,0.21 -0.55,-0.83l-6.61 -20.52c-1.2,-2.23 -12.88,-39.01 -12.81,-40.13l-1.18 -2.7c-1.75,-5.7 -4.65,-13.12 -5.93,-18.6 -0.91,-1.14 -4.87,-13.87 -4.73,-15.32 -1.27,-1.46 -0.94,-2.66 -1.85,-3.45l-6.23 19.12z"/>
   <path class="fil0" d="M1749.62 19.64l-13.22 40.4c-0.71,3.5 -2.29,7.32 -3.4,10.86 -0.92,2.91 -1.99,8.35 -3.66,10.32 0.06,1.38 -11.54,37.45 -12.83,40.23 -0.56,2.48 -3.87,13.17 -4.96,14.83l-15.48 0.01 -19.57 0 -21.18 0 -19.57 0 -21.18 0 -19.57 0c-4.62,0 -9.23,0 -13.85,0 -1.96,0 -11.21,-0.61 -12.73,0.62 1.82,0.66 32.51,23.37 33.55,24.16 2.8,2.13 5.77,4.06 8.54,6.13 2.74,2.05 5.42,4.04 8.23,6.03l16.67 12.16c4.29,2.78 8.21,5.93 12.37,8.92l30.53 22.03c1.79,1.35 4.07,3.26 6.09,4.29l-14.24 43.64 -6.53 20.12 -11.81 36.62c-0.33,0.95 -0.51,1.52 -0.8,2.44l-1.12 2.4c0.09,1.6 -5.13,17.64 -6.11,19.45l-3.65 11.64c2.52,-1.58 5.25,-3.58 7.65,-5.32 2.7,-1.97 5.11,-4.02 7.93,-5.63 1.4,-1.32 3.35,-2.51 5.05,-3.79 1.75,-1.32 3.12,-2.26 4.94,-3.62 3.28,-2.42 6.91,-4.89 10.16,-7.36 6.74,-5.12 13.76,-9.54 20.3,-14.74 3.19,-2.53 6.66,-5 10.12,-7.41l25.48 -18.53c0.95,-0.69 1.79,-1.2 2.64,-1.86 1.22,-0.94 1.14,-1.25 2.49,-1.44 0.82,-1.4 2.56,-2.12 3.9,-3.2 4.1,-2.8 11.85,-9.03 15.17,-10.98 1.92,1.04 3.95,2.77 5.8,4.09 1.95,1.39 3.53,2.56 5.43,3.94 1.86,1.36 3.55,2.56 5.44,3.93l5.11 4.02c1.94,0.74 8.49,5.84 10.73,7.45l66.6 48.32c1.48,1.14 3.87,2.46 4.79,3.93 1.73,0.35 9.56,6.79 11.93,8.1l-3.52 -11.17 -6.62 -20.75c-1.11,-2.17 -12.67,-38.13 -12.64,-39.52 -0.96,-1.11 -1.6,-4.02 -2.07,-5.41l-5.08 -15.96c-0.97,-1.73 -13.7,-41.17 -13.94,-43.54 1.58,-0.62 24.84,-17.79 25.91,-18.56l22.41 -16.31c1.39,-1.02 1.96,-1.75 3.13,-1.95 1.59,-2.07 9.67,-7.31 12.16,-9.26l12.06 -8.72c1.47,-1.11 2.45,-1.73 4.05,-2.87 1.39,-0.99 2.56,-2.02 3.97,-2.97 2.79,-1.9 5.35,-4.05 8.25,-6l23.93 -17.54 -3.23 -0.02 -19.56 0 -21.19 0 -19.56 0 -21.19 0 -19.56 0 -21.19 0 -17.93 -0.12c-1.11,-2.12 -10.92,-32.84 -10.88,-34.1 -0.44,-0.51 0,0.21 -0.55,-0.83l-6.61 -20.52c-1.2,-2.23 -12.88,-39.01 -12.81,-40.13l-1.18 -2.7c-1.75,-5.7 -4.65,-13.12 -5.93,-18.6 -0.91,-1.14 -4.87,-13.87 -4.73,-15.32 -1.27,-1.46 -0.94,-2.66 -1.85,-3.45l-6.23 19.12z"/>
   <path class="fil0" d="M2274.81 19.64l-13.22 40.4c-0.71,3.5 -2.29,7.32 -3.4,10.86 -0.92,2.91 -1.99,8.35 -3.66,10.32 0.06,1.38 -11.54,37.45 -12.83,40.23 -0.56,2.48 -3.87,13.17 -4.96,14.83l-15.48 0.01 -19.57 0 -21.18 0 -19.57 0 -21.18 0 -19.57 0c-4.62,0 -9.23,0 -13.85,0 -1.96,0 -11.21,-0.61 -12.73,0.62 1.82,0.66 32.51,23.37 33.55,24.16 2.8,2.13 5.77,4.06 8.54,6.13 2.74,2.05 5.42,4.04 8.23,6.03l16.67 12.16c4.29,2.78 8.21,5.93 12.37,8.92l30.53 22.03c1.79,1.35 4.07,3.26 6.09,4.29l-14.24 43.64 -6.53 20.12 -11.81 36.62c-0.33,0.95 -0.51,1.52 -0.8,2.44l-1.12 2.4c0.09,1.6 -5.13,17.64 -6.11,19.45l-3.65 11.64c2.52,-1.58 5.25,-3.58 7.65,-5.32 2.7,-1.97 5.11,-4.02 7.93,-5.63 1.4,-1.32 3.35,-2.51 5.05,-3.79 1.75,-1.32 3.12,-2.26 4.94,-3.62 3.28,-2.42 6.91,-4.89 10.16,-7.36 6.74,-5.12 13.76,-9.54 20.3,-14.74 3.19,-2.53 6.66,-5 10.12,-7.41l25.48 -18.53c0.95,-0.69 1.79,-1.2 2.64,-1.86 1.22,-0.94 1.14,-1.25 2.49,-1.44 0.82,-1.4 2.56,-2.12 3.9,-3.2 4.1,-2.8 11.85,-9.03 15.17,-10.98 1.92,1.04 3.95,2.77 5.8,4.09 1.95,1.39 3.53,2.56 5.43,3.94 1.86,1.36 3.55,2.56 5.44,3.93l5.11 4.02c1.94,0.74 8.49,5.84 10.73,7.45l66.6 48.32c1.48,1.14 3.87,2.46 4.79,3.93 1.73,0.35 9.56,6.79 11.93,8.1l-3.52 -11.17 -6.62 -20.75c-1.11,-2.17 -12.67,-38.13 -12.64,-39.52 -0.96,-1.11 -1.6,-4.02 -2.07,-5.41l-5.08 -15.96c-0.97,-1.73 -13.7,-41.17 -13.94,-43.54 1.58,-0.62 24.84,-17.79 25.91,-18.56l22.41 -16.31c1.39,-1.02 1.96,-1.75 3.13,-1.95 1.59,-2.07 9.67,-7.31 12.16,-9.26l12.06 -8.72c1.47,-1.11 2.45,-1.73 4.05,-2.87 1.39,-0.99 2.56,-2.02 3.97,-2.97 2.79,-1.9 5.35,-4.05 8.25,-6l23.93 -17.54 -3.23 -0.02 -19.56 0 -21.19 0 -19.56 0 -21.19 0 -19.56 0 -21.19 0 -17.93 -0.12c-1.11,-2.12 -10.92,-32.84 -10.88,-34.1 -0.44,-0.51 0,0.21 -0.55,-0.83l-6.61 -20.52c-1.2,-2.23 -12.88,-39.01 -12.81,-40.13l-1.18 -2.7c-1.75,-5.7 -4.65,-13.12 -5.93,-18.6 -0.91,-1.14 -4.87,-13.87 -4.73,-15.32 -1.27,-1.46 -0.94,-2.66 -1.85,-3.45l-6.23 19.12z"/>
  </g>
 </g>
</svg>
