<?xml version="1.0" encoding="UTF-8"?>
<!DOCTYPE svg PUBLIC "-//W3C//DTD SVG 1.1//EN" "http://www.w3.org/Graphics/SVG/1.1/DTD/svg11.dtd">
<!-- Creator: CorelDRAW -->
<svg xmlns="http://www.w3.org/2000/svg" xml:space="preserve" width="73.268mm" height="33.795mm" version="1.1" style="shape-rendering:geometricPrecision; text-rendering:geometricPrecision; image-rendering:optimizeQuality; fill-rule:evenodd; clip-rule:evenodd"
viewBox="0 0 7326.8 3379.5"
 xmlns:xlink="http://www.w3.org/1999/xlink"
 xmlns:xodm="http://www.corel.com/coreldraw/odm/2003">
 <defs>
  <style type="text/css">
   <![CDATA[
    .fil0 {fill:#201E1E}
   ]]>
  </style>
 </defs>
 <g id="Camada_x0020_1">
  <metadata id="CorelCorpID_0Corel-Layer"/>
  <g id="_1688122870288">
   <path class="fil0" d="M-2.67 1366.53c0,1256.73 1388.19,1344.79 2067.37,1023.1 76.33,-36.15 143.54,-91.95 194.7,-113.24l-2.21 -862.21 -693.33 -1.11c-60.47,0.3 -61.59,-12.48 -79.8,24.26 24.26,65.65 68.39,1.57 148.62,74.51 46.6,42.36 56.61,103.51 56.61,180.36l0 566.37c0,156.99 -440.57,336 -790.28,-13.24 -413.5,-412.93 -385.72,-1668.45 180.14,-1931.63 300.31,-139.67 703.83,7.69 684.28,315.62 -7.69,121.2 -82.67,155.45 -158.19,213.32 -0.57,421.51 701.99,450.49 702.06,-56.83 0.04,-370.88 -416.29,-556.44 -773.18,-606.04 -870.8,-121.01 -1536.79,362.99 -1536.79,1186.76z"/>
   <path class="fil0" d="M6913.19 2942.74c91.67,160.45 16.69,341.79 -165.29,353.82 -188.48,12.46 -232.54,-170.92 -222.66,-355.09l387.95 1.27zm-6875.92 -2.57c7.55,1.39 31.8,2.19 40.33,2.37 31.61,0.67 67.91,-1.12 100.3,-1.2l2817.7 0.02c1005.16,1.44 2010.43,-0.03 3015.6,-0.03 56.95,253.03 184.8,376.16 452.18,421.62 850.73,144.61 1000.49,-530.91 752.85,-751.87 -73.6,-65.68 -207.02,-113.93 -332.1,-61.07 -107.17,45.29 -158.27,122.72 -171.85,260.77l108.82 40.28c35.26,17.19 56.23,37.43 72.45,70.21l-370.3 -1.56 -0.1 -1992.03c74.69,-3.57 149.91,-2.34 224.72,-1.74 195.66,1.58 154.95,15.17 157.58,-60.25l-376.98 -1.94c-28.64,-171.53 39.25,-728.28 -44.9,-818.41 -73.52,-78.74 -246.02,-26.09 -351.57,-2.99 -60.1,13.15 -307.95,45.86 -327.63,92.33 125.61,61.4 191.37,-52.81 187.95,268.98 -1.47,138.32 11.15,327.41 -3.82,461.14l-332.84 0.73c2.79,80.35 -0.67,63.94 99.95,61.32 189.09,-4.93 235.47,3.67 236.54,212.53 1.02,198.27 -0.22,396.97 -0.22,595.29l13.81 1186.44 -5968.47 19.06z"/>
   <path class="fil0" d="M5223.6 1520.24l-502.34 0c-18.21,-194.59 60.52,-624.74 243.28,-633.44 210.6,-10.02 269.31,420.21 259.06,633.44zm435.9 525.77c-57.4,-13.54 -108.42,72.21 -273.52,125.35 -386.41,124.38 -625.49,-116.07 -664.6,-567.55l985.88 -0.29c83.81,-974.99 -1339.34,-1085.32 -1500.29,-115.31 -141.84,854.82 581.28,1211.46 1119.31,949.17 88.75,-43.27 161.31,-100.79 214.84,-154.33 40.2,-40.21 143.43,-170.49 118.38,-237.04z"/>
   <path class="fil0" d="M3018.76 1520.4c-18.74,-200.64 59.85,-644.12 258.84,-633.24 194.92,10.66 256.18,419.82 243.59,633.24l-502.43 0zm983.24 82.78c41.67,-305.78 -128.3,-562.32 -289.3,-670.16 -325.28,-217.87 -1039.07,-169.31 -1194.96,492.9 -252.73,1073.5 955.41,1416.81 1390.4,767.59 179.48,-267.88 -100.3,-77.82 -123.36,-65.78 -381.84,199.38 -736.9,6.23 -764.35,-523.86l981.57 -0.69z"/>
   <rect class="fil0" x="3.11" y="2916.66" width="6928.28" height="70.72"/>
  </g>
 </g>
</svg>
