<?xml version="1.0" encoding="UTF-8"?>
<!DOCTYPE svg PUBLIC "-//W3C//DTD SVG 1.1//EN" "http://www.w3.org/Graphics/SVG/1.1/DTD/svg11.dtd">
<!-- Creator: CorelDRAW -->
<svg xmlns="http://www.w3.org/2000/svg" xml:space="preserve" width="19.48mm" height="19.48mm" version="1.1" style="shape-rendering:geometricPrecision; text-rendering:geometricPrecision; image-rendering:optimizeQuality; fill-rule:evenodd; clip-rule:evenodd"
viewBox="0 0 1948 1948"
 xmlns:xlink="http://www.w3.org/1999/xlink"
 xmlns:xodm="http://www.corel.com/coreldraw/odm/2003">
 <defs>
  <style type="text/css">
   <![CDATA[
    .str0 {stroke:#201E1E;stroke-width:20;stroke-miterlimit:22.9256}
    .fil1 {fill:none}
    .fil0 {fill:#201E1E}
   ]]>
  </style>
   <clipPath id="id0">
    <path d="M965.87 8.12c537.93,0 974.01,436.08 974.01,974.01 0,537.93 -436.08,974.01 -974.01,974.01 -537.93,0 -974.01,-436.08 -974.01,-974.01 0,-537.93 436.08,-974.01 974.01,-974.01z"/>
   </clipPath>
 </defs>
 <g id="Camada_x0020_1">
  <metadata id="CorelCorpID_0Corel-Layer"/>
  <g>
  </g>
  <g style="clip-path:url(#id0)">
   <g id="_1688108508704">
    <ellipse class="fil0 str0" cx="970.69" cy="1593.34" rx="416.61" ry="591.52"/>
    <circle class="fil0 str0" cx="970.69" cy="626.54" r="337.1"/>
    <ellipse class="fil0 str0" transform="matrix(0.540462 -0.540462 0.540462 0.540462 483.313 1344.21)" rx="549.23" ry="137.31"/>
    <ellipse class="fil0 str0" transform="matrix(-0.540462 -0.540462 -0.540462 0.540462 1454.09 1344.21)" rx="549.23" ry="137.31"/>
   </g>
  </g>
  <path class="fil1 str0" d="M965.87 8.12c537.93,0 974.01,436.08 974.01,974.01 0,537.93 -436.08,974.01 -974.01,974.01 -537.93,0 -974.01,-436.08 -974.01,-974.01 0,-537.93 436.08,-974.01 974.01,-974.01z"/>
 </g>
</svg>
